<svg class="c-logo" width="30%" height="30%" viewBox="0 0 267 60" version="1.1" xmlns="http://www.w3.org/2000/svg" xmlns:xlink="http://www.w3.org/1999/xlink">
    <defs></defs>
    <g id="Page-1" stroke="none" stroke-width="1" fill="none" fill-rule="evenodd">
        <g id="Artboard-1" transform="translate(-268.000000, -274.000000)" fill="#F24343">
            <g id="Group" transform="translate(268.000000, 274.000000)">
                <path d="M19.412,4.464 C18.98,5.616 8.324,17.856 8.324,17.856 L8.324,2.688 C8.468,1.968 10.58,1.68 11.972,1.584 L11.972,0.672 C10.6676006,0.797422852 8.40631982,0.870383789 6.08547192,0.870383789 C3.96526367,0.870383789 1.79535693,0.809472656 0.26,0.672 L0.26,1.344 C0.26,1.344 3.524,1.776 3.716,2.592 C3.78190405,2.90496094 3.81387207,5.87433545 3.81387207,9.69643213 C3.81387207,17.0127363 3.69670435,27.4536577 3.476,28.368 C3.22913574,29.355427 0.936895508,29.4259585 0.287009521,29.4259585 C0.178692383,29.4259585 0.116,29.424 0.116,29.424 L0.116,30.192 C2.48398437,30.0639998 5.62001636,30 8.32932764,30 C9.68398437,30 10.9319844,30.0159998 11.924,30.048 L11.876,29.28 C10.628,29.28 8.324,29.088 8.324,27.936 L8.372,19.152 L10.772,16.08 C14.324,21.024 16.388,24.432 19.796,29.904 C20.7188486,29.8146907 21.6417441,29.7807708 22.5846084,29.7807708 C24.6823525,29.7807708 26.8792637,29.948655 29.396,30.048 L29.492,29.136 C27.332,28.944 25.892,28.656 24.356,26.928 C19.316,21.264 18.932,19.824 13.748,13.104 C17.54,8.4 19.172,6 22.676,2.736 C24.02,1.488 26.564,1.344 26.564,1.344 L26.564,0.672 C25.1560156,0.800015625 23.0226553,0.906670898 20.7613276,0.906670898 C19.630688,0.906670898 18.4679844,0.879984375 17.348,0.816 L17.444,1.488 C18.26,1.536 19.796,1.968 19.844,3.312 C19.844,3.552 19.508,4.128 19.412,4.464 L19.412,4.464 Z M48.884,17.04 L52.004,25.392 C52.004,25.392 52.5148159,26.4865825 52.5148159,27.4636655 C52.5148159,27.8591521 52.4311045,28.2353906 52.196,28.512 C51.6386724,29.1573311 50.5794087,29.2828125 49.8398237,29.2828125 C49.3691841,29.2828125 49.028,29.232 49.028,29.232 L48.98,30.144 C50.5857925,30.0383562 52.6659204,29.9978159 54.7536318,29.9978159 C57.4087988,29.9978159 60.0762559,30.0633867 61.796,30.144 L61.892,28.992 C61.412,28.896 60.5,29.088 59.54,28.608 C58.868,28.272 57.9669453,27.8163743 56.66,24.72 L46.388,0.384 L44.852,0.384 C44.852,0.384 33.716,26.256 32.42,27.792 C31.5413699,28.8333406 29.9481245,29.2808064 28.8517476,29.2808064 C28.8248604,29.2808064 28.798272,29.2805376 28.772,29.28 L28.772,30.24 L37.988,30.192 L37.94,29.424 C36.9464001,29.424 34.8914719,29.0329629 34.8914719,27.9720527 C34.8914719,27.8285281 34.9290562,27.672739 35.012,27.504 L39.476,17.04 L48.884,17.04 Z M40.004,15.936 L44.324,5.808 L48.5,15.936 L40.004,15.936 Z M91.412,30.096 L91.412,29.424 C90.5,29.376 89.492,29.328 88.484,27.888 C87.86,27.024 87.428,25.632 86.612,23.472 C85.172,19.536 83.492,14.832 78.452,14.352 C82.7166553,14.2098237 86.1803838,11.0756162 86.1803838,7.9896958 C86.1803838,3.28449609 81.6501919,0.672 78.26,0.672 C76.6142715,0.672 74.1222083,0.703344727 71.3390242,0.703344727 C69.2516958,0.703344727 67.000592,0.685728516 64.82,0.624 L64.82,1.44 C64.82,1.44 68.036,1.92 68.228,2.736 C68.3144001,3.19679883 68.4353604,8.5132793 68.4353604,14.5900796 C68.4353604,18.64128 68.3815999,23.0304001 68.228,26.544 C68.228,27.648 68.084,27.984 68.036,28.176 C67.8709758,29.1660959 65.252,29.232 64.196,29.232 L64.196,30.048 C65.5008176,29.9638184 67.4607676,29.9257727 69.5013923,29.9257727 C72.1149438,29.9257727 74.8608315,29.9881816 76.532,30.096 L76.58,29.184 C76.58,29.1648003 76.1583682,29.1132671 74.516,29.088 C72.98,29.088 72.884,27.936 72.884,26.784 L72.836,15.12 L75.956,15.168 C79.1712324,15.2174883 80.8040483,19.9201443 81.668,23.088 C82.1985444,25.0775999 82.932752,27.9631538 82.932752,29.5689397 C82.932752,29.7064702 82.927376,29.8346118 82.916,29.952 L91.412,30.096 Z M78.02,1.872 C80.1936318,2.40513574 81.4698081,5.09553516 81.4698081,7.87982373 C81.4698081,10.9651201 79.8542715,14.0644321 76.0811357,14.0644321 C75.7614556,14.0644321 75.4416802,14.0553604 72.884,14.016 L72.884,1.776 C73.4605281,1.7007832 74.4167363,1.62561621 75.4175366,1.62561621 C76.3331841,1.62561621 77.2861279,1.68854297 78.02,1.872 L78.02,1.872 Z M103.22,26.832 C103.198544,20.6711997 103.177088,18.2639517 103.177088,16.102752 C103.177088,13.4313604 103.209872,11.1358564 103.316,2.592 C103.46,1.584 105.284,1.296 106.724,1.2 L106.724,0.48 L94.676,0.528 L94.676,1.344 C94.676,1.344 98.516,1.584 98.612,2.592 C98.6888003,3.648 98.7271997,7.48416064 98.7271997,11.8886396 C98.7271997,18.4953604 98.6408003,26.3808003 98.468,28.08 C98.324,29.232 94.052,29.376 94.052,29.376 L94.052,30.144 L115.652,30.144 L116.42,22.896 L115.364,22.896 C115.028,25.92 113.204,28.992 110.948,28.992 C110.948,28.992 109.076,28.944 104.9,28.944 C103.652,28.944 103.22,27.984 103.22,26.832 L103.22,26.832 Z M138.644,0.624 L129.86,0.816 L129.86,1.632 C131.924,1.776 134.948,3.168 135.284,5.136 C135.284,6.72 135.188,27.12 135.188,27.12 C135.188,27.12 135.092,27.888 134.516,28.368 C133.604,29.136 130.196,29.376 130.196,29.376 L130.196,30.144 C131.804,30 133.64,29.94 135.428,29.94 C137.216,29.94 138.956,30 140.372,30.096 L140.372,29.232 C140.30216,29.232 140.202224,29.2335886 140.07872,29.2335886 C139.523072,29.2335886 138.491264,29.2014529 137.588,28.848 C136.82,28.032 136.436,28.56 136.436,26.736 C136.451984,24.7520156 136.457312,21.84 136.457312,18.8390881 C136.457312,12.837312 136.436,6.48 136.436,6.48 L148.772,30.672 L149.54,30.672 L160.532,6.192 L160.532,27.408 C160.532,27.936 160.004,28.608 159.284,28.944 C158.42,29.328 157.316,29.232 156.596,29.376 L156.596,30.144 C158.156,30.024 160.496,29.976 162.848,29.976 C165.2,29.976 167.564,30.024 169.172,30.096 L169.172,29.232 C169.172,29.232 168.68048,29.341229 168.032384,29.341229 C167.465311,29.341229 166.778384,29.2575981 166.196,28.944 C165.236,28.368 164.804,27.216 164.804,27.216 L164.804,3.072 C164.852,1.872 168.596,1.44 169.268,1.392 L169.268,0.48 L161.204,0.816 L150.836,24.336 C148.964,20.304 140.084,3.408 138.644,0.624 L138.644,0.624 Z M190.34,17.04 L193.46,25.392 C193.46,25.392 193.970816,26.4865825 193.970816,27.4636655 C193.970816,27.8591521 193.887104,28.2353906 193.652,28.512 C193.094672,29.1573311 192.035409,29.2828125 191.295824,29.2828125 C190.825184,29.2828125 190.484,29.232 190.484,29.232 L190.436,30.144 C192.041792,30.0383562 194.12192,29.9978159 196.209632,29.9978159 C198.864799,29.9978159 201.532256,30.0633867 203.252,30.144 L203.348,28.992 C202.868,28.896 201.956,29.088 200.996,28.608 C200.324,28.272 199.422945,27.8163743 198.116,24.72 L187.844,0.384 L186.308,0.384 C186.308,0.384 175.172,26.256 173.876,27.792 C172.99737,28.8333406 171.404125,29.2808064 170.307748,29.2808064 C170.28086,29.2808064 170.254272,29.2805376 170.228,29.28 L170.228,30.24 L179.444,30.192 L179.396,29.424 C178.4024,29.424 176.347472,29.0329629 176.347472,27.9720527 C176.347472,27.8285281 176.385056,27.672739 176.468,27.504 L180.932,17.04 L190.34,17.04 Z M181.46,15.936 L185.78,5.808 L189.956,15.936 L181.46,15.936 Z M232.868,30.096 L232.868,29.424 C231.956,29.376 230.948,29.328 229.94,27.888 C229.316,27.024 228.884,25.632 228.068,23.472 C226.628,19.536 224.948,14.832 219.908,14.352 C224.172655,14.2098237 227.636384,11.0756162 227.636384,7.9896958 C227.636384,3.28449609 223.106192,0.672 219.716,0.672 C218.070271,0.672 215.578208,0.703344727 212.795024,0.703344727 C210.707696,0.703344727 208.456592,0.685728516 206.276,0.624 L206.276,1.44 C206.276,1.44 209.492,1.92 209.684,2.736 C209.7704,3.19679883 209.89136,8.5132793 209.89136,14.5900796 C209.89136,18.64128 209.8376,23.0304001 209.684,26.544 C209.684,27.648 209.54,27.984 209.492,28.176 C209.326976,29.1660959 206.708,29.232 205.652,29.232 L205.652,30.048 C206.956818,29.9638184 208.916768,29.9257727 210.957392,29.9257727 C213.570944,29.9257727 216.316832,29.9881816 217.988,30.096 L218.036,29.184 C218.036,29.1648003 217.614368,29.1132671 215.972,29.088 C214.436,29.088 214.34,27.936 214.34,26.784 L214.292,15.12 L217.412,15.168 C220.627232,15.2174883 222.260048,19.9201443 223.124,23.088 C223.654544,25.0775999 224.388752,27.9631538 224.388752,29.5689397 C224.388752,29.7064702 224.383376,29.8346118 224.372,29.952 L232.868,30.096 Z M219.476,1.872 C221.649632,2.40513574 222.925808,5.09553516 222.925808,7.87982373 C222.925808,10.9651201 221.310271,14.0644321 217.537136,14.0644321 C217.217456,14.0644321 216.89768,14.0553604 214.34,14.016 L214.34,1.776 C214.916528,1.7007832 215.872736,1.62561621 216.873537,1.62561621 C217.789184,1.62561621 218.742128,1.68854297 219.476,1.872 L219.476,1.872 Z M259.7,4.464 C259.7,4.464 261.092,2.832 261.812,2.4 C262.724,1.872 264.164,1.632 264.932,1.584 L264.932,0.672 C263.627601,0.797422852 261.890671,0.870383789 260.070465,0.870383789 C258.407647,0.870383789 256.675376,0.809472656 255.14,0.672 L255.14,1.344 L257.972,2.112 C258.785167,2.38305469 258.904783,2.98896094 258.904783,3.32193457 C258.904783,3.63561621 258.880593,3.55670508 251.78,13.344 L246.164,4.176 C246.164,4.176 245.956928,3.69287988 245.956928,3.14073633 C245.956928,2.89536035 245.997824,2.63630273 246.116,2.4 C246.356,1.968 248.564,1.632 249.092,1.584 L249.092,0.672 C247.787601,0.797422852 244.87088,0.870383789 241.924208,0.870383789 C239.232271,0.870383789 236.515357,0.809472656 234.98,0.672 L234.98,1.344 C235.412,1.44 237.38,1.536 238.004,1.968 C238.82,2.496 240.116,3.408 240.788,4.272 L248.612,15.984 L240.692,26.496 C240.692,26.496 239.3,28.128 238.58,28.56 C237.668,29.088 236.228,29.328 235.46,29.376 L235.46,30.288 C236.764391,30.1625625 238.501328,30.0895781 240.321536,30.0895781 C241.984352,30.0895781 243.716672,30.1505156 245.252,30.288 L245.252,29.616 L242.42,28.848 C241.606832,28.5769204 241.487216,27.971064 241.487216,27.638064 C241.487216,27.3316897 241.58672,27.4318462 249.188,16.944 C249.188,16.944 253.332368,22.8607683 255.764,26.784 C256.008608,27.178637 256.008896,27.3472654 256.008896,27.9490129 C256.008896,28.1897139 255.969729,28.436573 255.86,28.656 C255.62,29.088 253.364,29.328 252.836,29.376 L252.836,30.288 C254.140399,30.1625786 256.926033,30.0895928 259.747569,30.0895928 C262.32512,30.0895928 264.932624,30.1505054 266.468,30.288 L266.468,29.616 C266.036,29.52 263.78,28.944 263.06,28.656 C262.292,28.368 261.526016,27.2379844 260.756,26.16 C257.493775,21.5928962 252.74,14.208 252.74,14.208 L259.7,4.464 Z" id="KARL-MARX"></path>
                <path d="M55.1,46.48 C52.56,46.48 48.46,47.92 48.46,53.02 C48.46,57.24 51.38,59.44 55.18,59.44 C58.02,59.44 59.32,57.54 60.06,55.76 C59.86,55.62 59.6,55.4 59.6,55.4 C58.82,57.24 57.88,58.84 55.22,58.84 C51.82,58.84 51.04,55.86 51.04,52.88 C51.1023001,49.48034 52.2693799,47.02 54.94,47.02 C57.68,47.02 59.06,48.36 59.38,50.38 L59.76,50.38 L59.82,46.34 L59.2,46.34 C59.1,47 59.1,47.24 58.6,47.56 C58.22,47.1 56.74,46.48 55.1,46.48 L55.1,46.48 Z M81.86,53.6 L83.16,57.08 C83.16,57.08 83.37284,57.536076 83.37284,57.943194 C83.37284,58.10798 83.3379602,58.2647461 83.24,58.38 C83.0077802,58.6488879 82.5664203,58.7011719 82.2582599,58.7011719 C82.06216,58.7011719 81.92,58.68 81.92,58.68 L81.9,59.06 C82.5690802,59.0159818 83.4358002,58.99909 84.3056799,58.99909 C85.4119995,58.99909 86.5234399,59.0264111 87.24,59.06 L87.28,58.58 C87.08,58.54 86.7,58.62 86.3,58.42 C86.02,58.28 85.6445605,58.0901559 85.1,56.8 L80.82,46.66 L80.18,46.66 C80.18,46.66 75.54,57.44 75,58.08 C74.6339041,58.5138919 73.9700519,58.700336 73.5132281,58.700336 C73.5020251,58.700336 73.4909467,58.700224 73.48,58.7 L73.48,59.1 L77.32,59.08 L77.3,58.76 C76.8860001,58.76 76.02978,58.5970679 76.02978,58.155022 C76.02978,58.09522 76.0454401,58.0303079 76.08,57.96 L77.94,53.6 L81.86,53.6 Z M78.16,53.14 L79.96,48.92 L81.7,53.14 L78.16,53.14 Z M110.2,50.26 C110.2,47.96 108.04,46.76 106.5,46.76 C105.3,46.76 103.32,46.72 101.22,46.72 L101.22,47.06 C101.22,47.06 102.5357,47.1606995 102.56,47.58 C102.6,48.27 102.62,50.745 102.62,53.145 C102.62,55.545 102.6,57.87 102.56,58.26 C102.50858,58.6714279 101.369796,58.700816 101.045482,58.700816 C100.991428,58.700816 100.96,58.7 100.96,58.7 L100.96,59.02 C103.06,59.02 106.3,59.06 106.3,59.06 L106.3,58.76 C106.19536,58.7682599 106.08656,58.7727301 105.97672,58.7727301 C105.28872,58.7727301 104.56,58.597392 104.56,58.08 L104.58,53.24 C104.58,53.24 104.96,53.46 106.04,53.46 C108.64,53.46 110.2,52.18 110.2,50.26 L110.2,50.26 Z M108.24,50.26 C108.22,51.56 107.56,53.04 105.9,53.04 C104.94,53.04 104.58,52.94 104.58,52.94 L104.58,47.22 C104.94,47.22 105.29404,47.2021399 105.63566,47.2021399 C105.92034,47.2021399 106.19636,47.2145398 106.46,47.26 C108.08,47.56 108.24,48.88 108.24,50.26 L108.24,50.26 Z M128.04,47.62 C128.04,47.36 128.82,47.2 129.4,47.16 L129.4,46.78 C128.8565,46.8322595 127.95798,46.8626599 127.0327,46.8626599 C126.18738,46.8626599 125.31974,46.8372803 124.68,46.78 L124.68,47.06 C124.68,47.06 126.12,47.24 126.12,47.58 C126.12,47.96 126.12,57.72 126.02,58.3 C125.95142,58.7114279 124.824898,58.740816 124.504432,58.740816 C124.45102,58.740816 124.42,58.74 124.42,58.74 L124.42,59.06 C125.40666,59.0066666 126.80222,58.98 127.99038,58.98 C128.58444,58.98 129.12666,58.9866666 129.54,59 L129.52,58.68 C129,58.68 128.06,58.6 128.04,58.12 C128.00666,57.273334 127.99556,55.8622198 127.99556,54.34444 C127.99556,51.30888 128.04,47.8466602 128.04,47.62 L128.04,47.62 Z M147.66,58.28 C147.40714,58.617142 146.84868,58.640614 146.34092,58.640614 C146.25878,58.640614 146.17798,58.64 146.1,58.64 L146.1,59.02 L152.1,59.02 L152.1,58.64 C151.5,58.64 150.76,58.6 150.5,58.28 C150.32,58.06 150.14098,57.66 150.14,57.16 L150.12,47.18 L152.4,47.2 C153.7201,47.2115796 153.96,49.24 154.02,50.34 L154.4,50.34 L154.36,46.72 C153.14102,46.76724 151.31038,46.7877002 149.44606,46.7877002 C147.36452,46.7877002 145.24102,46.7621997 143.88,46.72 L143.8,50.34 L144.18,50.34 C144.239726,49.32466 144.735448,47.1598596 146.04198,47.1598596 C146.24578,47.1598596 146.46958,47.1638599 148.1,47.18 L148.08,57.16 C148.07934,57.5 148,57.84 147.66,58.28 L147.66,58.28 Z M175.72,53.6 L177.02,57.08 C177.02,57.08 177.23284,57.536076 177.23284,57.943194 C177.23284,58.10798 177.19796,58.2647461 177.1,58.38 C176.86778,58.6488879 176.42642,58.7011719 176.11826,58.7011719 C175.92216,58.7011719 175.78,58.68 175.78,58.68 L175.76,59.06 C176.42908,59.0159818 177.2958,58.99909 178.16568,58.99909 C179.272,58.99909 180.38344,59.0264111 181.1,59.06 L181.14,58.58 C180.94,58.54 180.56,58.62 180.16,58.42 C179.88,58.28 179.504561,58.0901559 178.96,56.8 L174.68,46.66 L174.04,46.66 C174.04,46.66 169.4,57.44 168.86,58.08 C168.493904,58.5138919 167.830052,58.700336 167.373228,58.700336 C167.362025,58.700336 167.350947,58.700224 167.34,58.7 L167.34,59.1 L171.18,59.08 L171.16,58.76 C170.746,58.76 169.88978,58.5970679 169.88978,58.155022 C169.88978,58.09522 169.90544,58.0303079 169.94,57.96 L171.8,53.6 L175.72,53.6 Z M172.02,53.14 L173.82,48.92 L175.56,53.14 L172.02,53.14 Z M198.42,57.68 C198.41106,55.1129999 198.40212,54.1099799 198.40212,53.20948 C198.40212,52.0964001 198.41578,51.1399402 198.46,47.58 C198.52,47.16 199.28,47.04 199.88,47 L199.88,46.7 L194.86,46.72 L194.86,47.06 C194.86,47.06 196.46,47.16 196.5,47.58 C196.532,48.02 196.548,49.6184003 196.548,51.4535999 C196.548,54.2064001 196.512,57.4920001 196.44,58.2 C196.38,58.68 194.6,58.74 194.6,58.74 L194.6,59.06 L203.6,59.06 L203.92,56.04 L203.48,56.04 C203.34,57.3 202.58,58.58 201.64,58.58 C201.64,58.58 200.86,58.56 199.12,58.56 C198.6,58.56 198.42,58.16 198.42,57.68 L198.42,57.68 Z" id="CAPITAL"></path>
            </g>
        </g>
    </g>
</svg>
